<svg id="Capa_1" data-name="Capa 1" xmlns="http://www.w3.org/2000/svg" viewBox="0 0 3000 748.37"><defs><style>.cls-1{fill:#00be68;}</style></defs><path class="cls-1" d="M2929.21,67.77c-44.57-41.67-110.29-63.69-190-63.69H2524V743.16h95V486.31h120.14c79.83,0,145.53-21.86,190-63.19,44.64-41.49,68.24-102.84,68.24-177.44S2973.85,109.5,2929.21,67.77ZM2749,399.16H2619V91.22H2749c97.53,0,153.48,56.3,153.48,154.46C2902.46,341.79,2845.08,399.16,2749,399.16Z"/><path class="cls-1" d="M490.66,211.37C490.66,79.63,398.32,4.08,237.3,4.08H2.56V743.16H219.65c161,0,253.37-76.27,253.37-209.25,0-64.17-34.95-121.76-90.07-150.19C450.66,356.13,490.66,292.65,490.66,211.37ZM229.46,656H97.54V417.68H219.65c97.7,0,158.39,44.54,158.39,116.23C378,612.65,325.27,656,229.46,656ZM247.1,330.54H97.54V91.22H247.1c94.43,0,148.59,43.79,148.59,120.15C395.69,288.22,342.92,330.54,247.1,330.54Z"/><path class="cls-1" d="M1029,458.42C1029,587.69,974.23,656,870.61,656c-104.25,0-159.36-68.33-159.36-197.6V4.08h-95v466.1c0,170.8,97.45,276.9,254.34,276.9C1026.9,747.08,1124,641,1124,470.18V4.08h-95Z"/><path class="cls-1" d="M1496,.64c-141,0-243.33,103.15-243.33,245.28S1355,491.2,1496,491.2h4V401.53h-4c-86.77,0-149.75-65.44-149.75-155.61s63-155.59,149.75-155.59c87.34,0,150.72,65.43,150.72,155.59v5.34h93.58v-5.34C1740.28,103.79,1637.54.64,1496,.64Z"/><path class="cls-1" d="M2280.91,458.42c0,129.27-54.76,197.6-158.38,197.6-104.26,0-159.37-68.33-159.37-197.6V4.08h-95v466.1c0,170.8,97.46,276.9,254.35,276.9,156.28,0,253.37-106.1,253.37-276.9V4.08h-95Z"/><path class="cls-1" d="M1500,256.71v89.68c85.22,2,146.7,66.66,146.7,155.4,0,90.17-63.38,155.61-150.72,155.61-86.77,0-149.75-65.44-149.75-155.61v-5.33h-93.58v5.33c0,142.13,102.34,245.29,243.33,245.29,141.56,0,244.3-103.16,244.3-245.29C1740.28,361.05,1639.45,258.67,1500,256.71Z"/></svg>